<?xml version="1.0" standalone="no"?>
<!DOCTYPE svg PUBLIC "-//W3C//DTD SVG 20010904//EN"
 "http://www.w3.org/TR/2001/REC-SVG-20010904/DTD/svg10.dtd">
<svg version="1.0" xmlns="http://www.w3.org/2000/svg"
 width="585.000000pt" height="625.000000pt" viewBox="0 0 585.000000 625.000000"
 preserveAspectRatio="xMidYMid meet">

<g transform="translate(0.000000,625.000000) scale(0.100000,-0.100000)"
fill="red" stroke="none">
<path d="M2725 6225 c-211 -39 -404 -142 -562 -302 -151 -152 -272 -371 -878
-1583 -478 -956 -1035 -2132 -1170 -2469 -82 -206 -120 -443 -104 -647 45
-580 475 -1062 1059 -1190 125 -28 388 -25 527 4 276 59 531 181 785 374 130
99 312 263 418 378 l88 94 169 -164 c264 -258 490 -428 720 -541 580 -285
1193 -201 1613 221 197 197 308 406 372 700 18 86 22 136 23 275 0 252 -26
342 -219 772 -46 103 -93 206 -104 228 -11 22 -87 184 -170 360 -506 1083
-1347 2761 -1496 2984 -119 179 -288 337 -446 416 -183 92 -424 127 -625 90z
m307 -399 c140 -27 269 -97 361 -195 103 -110 177 -245 626 -1141 468 -933
876 -1783 1206 -2515 164 -362 202 -525 176 -745 -16 -132 -36 -199 -92 -316
-126 -265 -362 -449 -651 -508 -98 -20 -281 -21 -385 -1 -220 42 -457 161
-688 346 -95 75 -425 397 -425 414 0 6 15 29 33 51 19 21 75 94 125 162 320
429 523 837 604 1212 19 90 22 135 22 310 0 237 -10 292 -89 457 -172 364
-534 583 -963 583 -502 0 -926 -335 -1028 -815 -102 -473 138 -1123 674 -1827
l104 -138 -62 -70 c-140 -158 -363 -353 -530 -465 -115 -76 -306 -169 -412
-199 -364 -104 -724 -19 -972 230 -250 250 -331 599 -224 969 32 111 111 288
483 1080 350 745 899 1851 1268 2550 143 272 206 362 312 442 156 119 342 164
527 129z m63 -2280 c228 -61 402 -245 451 -476 25 -119 14 -333 -24 -475 -81
-299 -248 -613 -531 -997 -47 -65 -89 -116 -92 -115 -20 6 -212 272 -313 434
-360 576 -446 1065 -242 1371 30 44 76 96 111 125 75 61 199 121 290 141 86
19 262 15 350 -8z"/>
</g>
</svg>
