<svg xmlns="http://www.w3.org/2000/svg" xmlns:xlink="http://www.w3.org/1999/xlink" id="Capa_1" x="0" y="0" version="1.1" viewBox="0 0 512 512" xml:space="preserve" style="enable-background:new 0 0 512 512"><polygon style="fill:#ffb74f" points="432.106 250.534 432.106 470.021 296.578 470.021 296.578 336.975 221.399 336.975 221.399 470.021 79.894 470.021 79.894 250.534 256 115.075"/><path style="fill:#ff7d3c" d="M439.485,183.135V90.306h-74.167v35.772L256,41.979L0,238.92l53.633,69.712L256,152.959	l202.367,155.672L512,238.92L439.485,183.135z"/><polygon style="fill:#ff9a00" points="432.106 250.534 432.106 470.021 296.578 470.021 296.578 336.975 256 336.975 256 115.075"/><polygon style="fill:#ff4e19" points="512 238.92 458.367 308.632 256 152.959 256 41.979 365.318 126.078 365.318 90.306 439.485 90.306 439.485 183.135"/></svg>